<svg width="178" height="40" viewBox="0 0 178 40" fill="none" xmlns="http://www.w3.org/2000/svg">
<path d="M32.6426 13.9375C32.6426 12.5312 32.4902 11.418 32.1855 10.5977C31.8809 9.77734 31.377 9.15625 30.6738 8.73438C29.9707 8.3125 29.0449 8.04297 27.8965 7.92578C26.748 7.80859 25.3301 7.75 23.6426 7.75H14.6074C13.1074 7.75 11.8418 7.79688 10.8105 7.89062C9.79102 7.97266 8.94727 8.14844 8.2793 8.41797C7.61133 8.6875 7.0957 9.07422 6.73242 9.57812C6.36914 10.082 6.10547 10.75 5.94141 11.582C5.77734 12.4141 5.68359 13.4395 5.66016 14.6582C5.63672 15.8652 5.625 17.3125 5.625 19C5.625 20.6875 5.63672 22.1406 5.66016 23.3594C5.69531 24.5664 5.79492 25.5859 5.95898 26.418C6.12305 27.25 6.38086 27.918 6.73242 28.4219C7.0957 28.9258 7.61133 29.3125 8.2793 29.582C8.94727 29.8516 9.79102 30.0332 10.8105 30.127C11.8418 30.209 13.1074 30.25 14.6074 30.25H23.6602C24.9727 30.25 26.1035 30.2148 27.0527 30.1445C28.002 30.0742 28.8105 29.9453 29.4785 29.7578C30.1465 29.5703 30.6855 29.3125 31.0957 28.9844C31.5059 28.6562 31.8223 28.2461 32.0449 27.7539C32.2793 27.25 32.4375 26.6523 32.5195 25.9609C32.6016 25.2578 32.6426 24.4375 32.6426 23.5V21.8125H19.1074V19H36.0176V23.5C36.0176 24.625 35.9473 25.6445 35.8066 26.5586C35.666 27.4609 35.4141 28.2695 35.0508 28.9844C34.6992 29.6875 34.2246 30.2969 33.627 30.8125C33.0293 31.3281 32.2734 31.7559 31.3594 32.0957C30.4453 32.4238 29.3555 32.6641 28.0898 32.8164C26.8242 32.9805 25.3477 33.0625 23.6602 33.0625H14.6074C12.5449 33.0625 10.8047 32.9336 9.38672 32.6758C7.98047 32.4297 6.82031 32.0547 5.90625 31.5508C4.99219 31.0352 4.2832 30.3906 3.7793 29.6172C3.28711 28.8438 2.92383 27.9355 2.68945 26.8926C2.4668 25.8496 2.33789 24.6719 2.30273 23.3594C2.26758 22.0469 2.25 20.5938 2.25 19C2.25 17.4062 2.26758 15.9531 2.30273 14.6406C2.33789 13.3281 2.4668 12.1504 2.68945 11.1074C2.92383 10.0645 3.28711 9.15625 3.7793 8.38281C4.2832 7.60938 4.99219 6.9707 5.90625 6.4668C6.82031 5.95117 7.98047 5.57031 9.38672 5.32422C10.8047 5.06641 12.5449 4.9375 14.6074 4.9375H23.6426C25.3301 4.9375 26.8066 5.01953 28.0723 5.18359C29.3379 5.33594 30.4277 5.57617 31.3418 5.9043C32.2559 6.2207 33.0117 6.625 33.6094 7.11719C34.2188 7.60938 34.6992 8.18945 35.0508 8.85742C35.4141 9.52539 35.666 10.2812 35.8066 11.125C35.9473 11.9688 36.0176 12.9062 36.0176 13.9375H32.6426ZM60.6973 29.7227C60.6621 29.8633 60.3984 30.2148 59.9062 30.7773C59.5547 31.1992 59.0859 31.5742 58.5 31.9023C57.9141 32.2188 57.1289 32.4648 56.1445 32.6406C55.1719 32.8281 53.8887 32.9219 52.2949 32.9219C50.1738 32.9219 48.3633 32.8105 46.8633 32.5879C45.3633 32.377 44.1387 32.0488 43.1895 31.6035C42.2402 31.1465 41.543 30.5664 41.0977 29.8633C40.6641 29.1602 40.4473 28.3223 40.4473 27.3496C40.4473 26.3301 40.5645 25.4688 40.7988 24.7656C41.0449 24.0508 41.3965 23.4531 41.8535 22.9727C42.3223 22.4922 42.8848 22.1172 43.541 21.8477C44.1973 21.5781 44.9414 21.373 45.7734 21.2324C46.6172 21.0918 47.5371 21.0039 48.5332 20.9688C49.5293 20.9336 50.5898 20.916 51.7148 20.916C53.3203 20.916 54.6621 20.9863 55.7402 21.127C56.8184 21.2559 57.6973 21.4258 58.377 21.6367C59.0684 21.8359 59.5898 22.0527 59.9414 22.2871C60.293 22.5215 60.5449 22.7383 60.6973 22.9375C60.6973 21.625 60.6387 20.5059 60.5215 19.5801C60.416 18.6543 60.2344 17.8809 59.9766 17.2598C59.7305 16.6387 59.4082 16.1465 59.0098 15.7832C58.6113 15.4082 58.1191 15.127 57.5332 14.9395C56.959 14.752 56.2852 14.6348 55.5117 14.5879C54.7383 14.5293 53.8535 14.5 52.8574 14.5C51.3105 14.5 50.0273 14.541 49.0078 14.623C47.9883 14.6934 47.1797 14.8398 46.582 15.0625C45.9844 15.2852 45.5625 15.5957 45.3164 15.9941C45.0703 16.3809 44.9473 16.8906 44.9473 17.5234H41.5723C41.5723 16.457 41.7598 15.5547 42.1348 14.8164C42.5215 14.0781 43.1543 13.4805 44.0332 13.0234C44.9238 12.5547 46.0898 12.2148 47.5312 12.0039C48.9727 11.793 50.748 11.6875 52.8574 11.6875C54.9199 11.6875 56.666 11.8574 58.0957 12.1973C59.5254 12.5371 60.6797 13.1348 61.5586 13.9902C62.4492 14.8457 63.0879 16 63.4746 17.4531C63.873 18.8945 64.0723 20.7227 64.0723 22.9375V32.5H60.6973V29.7227ZM52.8574 30.25C54.3457 30.25 55.5879 30.1797 56.584 30.0391C57.5918 29.8984 58.4004 29.6875 59.0098 29.4062C59.6191 29.125 60.0527 28.7734 60.3105 28.3516C60.5684 27.9297 60.6973 27.4375 60.6973 26.875C60.6973 26.3125 60.5449 25.8379 60.2402 25.4512C59.9473 25.0527 59.4492 24.7305 58.7461 24.4844C58.0547 24.2383 57.1348 24.0625 55.9863 23.957C54.8379 23.8398 53.4199 23.7812 51.7324 23.7812C50.0449 23.7812 48.6797 23.8105 47.6367 23.8691C46.6055 23.9277 45.8086 24.0625 45.2461 24.2734C44.6836 24.4844 44.3027 24.7949 44.1035 25.2051C43.916 25.6152 43.8223 26.1719 43.8223 26.875C43.8223 27.5781 43.9219 28.1523 44.1211 28.5977C44.332 29.0312 44.7539 29.3711 45.3867 29.6172C46.0195 29.8633 46.9277 30.0332 48.1113 30.127C49.3066 30.209 50.8887 30.25 52.8574 30.25Z" fill="white"/>
<path fill-rule="evenodd" clip-rule="evenodd" d="M72.5 3H86.5V8H89.5V3V0H86.5H72.5H69.5V3V27V30H72.5H77.5V27H72.5V3Z" fill="white"/>
<rect x="79" y="9.5" width="17" height="27" stroke="white" stroke-width="3"/>
<path d="M114.062 32.8867C111.812 32.8867 109.902 32.7344 108.332 32.4297C106.762 32.1133 105.484 31.5742 104.5 30.8125C103.516 30.0508 102.801 29.0312 102.355 27.7539C101.91 26.4766 101.688 24.8711 101.688 22.9375C101.688 20.7227 101.91 18.8945 102.355 17.4531C102.801 16 103.516 14.8457 104.5 13.9902C105.484 13.1348 106.762 12.5371 108.332 12.1973C109.902 11.8574 111.812 11.6875 114.062 11.6875C115.668 11.6875 117.057 11.8047 118.229 12.0391C119.412 12.2734 120.42 12.6133 121.252 13.0586C122.096 13.5039 122.775 14.043 123.291 14.6758C123.818 15.3086 124.229 15.9766 124.521 16.6797C124.826 17.3711 125.031 18.1855 125.137 19.123C125.254 20.0605 125.312 21.0508 125.312 22.0938L125.031 23.2188H105.062C105.062 24.7656 105.215 26.0371 105.52 27.0332C105.824 28.0176 106.328 28.7383 107.031 29.1953C107.734 29.6523 108.66 29.9453 109.809 30.0742C110.957 30.1914 112.375 30.25 114.062 30.25C115.609 30.25 116.887 30.209 117.895 30.127C118.914 30.0332 119.723 29.8633 120.32 29.6172C120.918 29.3711 121.334 29.0312 121.568 28.5977C121.814 28.1523 121.938 27.5781 121.938 26.875H125.312C125.312 27.9648 125.119 28.8965 124.732 29.6699C124.357 30.4316 123.73 31.0527 122.852 31.5332C121.973 32.002 120.812 32.3418 119.371 32.5527C117.941 32.7754 116.172 32.8867 114.062 32.8867ZM114.062 14.5C112.938 14.5 111.93 14.5234 111.039 14.5703C110.16 14.6172 109.387 14.7227 108.719 14.8867C108.062 15.0391 107.5 15.2676 107.031 15.5723C106.562 15.8652 106.182 16.2168 105.889 16.627C105.607 17.0254 105.396 17.5938 105.256 18.332C105.127 19.0586 105.062 19.9375 105.062 20.9688H121.938C121.938 19.5977 121.791 18.5254 121.498 17.752C121.205 16.9668 120.742 16.3223 120.109 15.8184C119.477 15.3145 118.662 14.9688 117.666 14.7812C116.67 14.5938 115.469 14.5 114.062 14.5ZM147.25 18.8418C147.25 17.998 147.186 17.3008 147.057 16.75C146.939 16.1875 146.652 15.7422 146.195 15.4141C145.738 15.0742 145.059 14.8398 144.156 14.7109C143.266 14.5703 142.047 14.5 140.5 14.5C138.988 14.5 137.758 14.6348 136.809 14.9043C135.859 15.1621 135.115 15.5312 134.576 16.0117C134.037 16.4922 133.668 17.0664 133.469 17.7344C133.281 18.4023 133.188 19.1465 133.188 19.9668V32.5H129.812V12.25H133.188V15.4668C133.305 15.1035 133.521 14.7051 133.838 14.2715C134.154 13.8262 134.635 13.416 135.279 13.041C135.924 12.6543 136.756 12.332 137.775 12.0742C138.807 11.8164 140.09 11.6875 141.625 11.6875C143.383 11.6875 144.812 11.8457 145.914 12.1621C147.016 12.4668 147.871 12.9238 148.48 13.5332C149.102 14.1309 149.518 14.875 149.729 15.7656C149.951 16.6562 150.062 17.6816 150.062 18.8418H147.25ZM161.875 32.5L151.188 12.25H155.125L164.125 30.25L172.562 12.25H176.5L166.375 32.5L165.812 33.625C165.531 34.1875 165.25 34.7148 164.969 35.207C164.699 35.7109 164.389 36.168 164.037 36.5781C163.686 37 163.27 37.375 162.789 37.7031C162.309 38.0312 161.717 38.3066 161.014 38.5293C160.322 38.7637 159.496 38.9395 158.535 39.0566C157.574 39.1855 156.438 39.25 155.125 39.25V36.4375C156.25 36.4375 157.199 36.3906 157.973 36.2969C158.746 36.2148 159.391 36.0859 159.906 35.9102C160.434 35.7461 160.855 35.5469 161.172 35.3125C161.488 35.0781 161.752 34.8145 161.963 34.5215C162.174 34.2285 162.35 33.9121 162.49 33.5723C162.643 33.2324 162.812 32.875 163 32.5H161.875Z" fill="white"/>
</svg>
